<svg width="269" height="220" viewBox="0 0 269 220" fill="none" xmlns="http://www.w3.org/2000/svg">
<path d="M239.898 3.70637C240.288 2.38192 239.531 0.991989 238.206 0.601869C236.882 0.211748 235.492 0.969174 235.102 2.29363L239.898 3.70637ZM262.5 201L260.22 199.975L262.5 201ZM2.85319 147.005C1.47487 147.086 0.423236 148.27 0.504314 149.648L1.82556 172.109C1.90664 173.487 3.08972 174.539 4.46805 174.458C5.84638 174.377 6.89801 173.194 6.81693 171.815L5.64249 151.85L25.608 150.675C26.9863 150.594 28.0379 149.411 27.9569 148.033C27.8758 146.655 26.6927 145.603 25.3144 145.684L2.85319 147.005ZM264.78 202.025C268.663 193.393 269.877 186.089 268.394 180.13C266.877 174.033 262.661 169.815 256.781 167.204C250.98 164.63 243.465 163.56 234.912 163.626C226.325 163.693 216.512 164.908 206.001 167.05L206.999 171.95C217.299 169.851 226.778 168.69 234.951 168.626C243.157 168.562 249.869 169.607 254.752 171.774C259.555 173.906 262.477 177.057 263.542 181.337C264.641 185.754 263.881 191.835 260.22 199.975L264.78 202.025ZM206.001 167.05C190.712 170.166 176.24 175.858 161.9 181.182C147.485 186.534 133.144 191.539 117.765 193.553C87.278 197.546 52.1545 189.849 4.66091 147.633L1.33909 151.37C49.6343 194.299 86.1528 202.737 118.414 198.511C134.41 196.416 149.22 191.223 163.64 185.87C178.134 180.489 192.18 174.97 206.999 171.95L206.001 167.05ZM235.102 2.29363C232.38 11.5342 228.508 22.6303 224.327 35.1948C220.16 47.7205 215.716 61.6216 211.91 76.3175C204.306 105.681 199.204 138.391 204.029 169.879L208.971 169.121C204.296 138.609 209.217 106.662 216.75 77.5709C220.513 63.0398 224.916 49.265 229.072 36.7733C233.215 24.3205 237.144 13.0581 239.898 3.70637L235.102 2.29363ZM204.155 170.368C211.254 189.545 221.396 207.035 232.2 215.111C237.666 219.197 243.708 221.154 249.703 219.052C255.569 216.996 260.606 211.307 264.78 202.025L260.22 199.975C256.265 208.769 252.001 212.948 248.049 214.334C244.225 215.674 239.93 214.647 235.193 211.106C225.591 203.929 215.863 187.593 208.845 168.632L204.155 170.368Z" fill="url(#paint0_linear_55_993)"/>
<defs>
<linearGradient id="paint0_linear_55_993" x1="51.2061" y1="146.864" x2="111.144" y2="-25.6609" gradientUnits="userSpaceOnUse">
<stop/>
<stop offset="1" stop-opacity="0"/>
</linearGradient>
</defs>
</svg>
