<svg width="210" height="147" viewBox="0 0 210 147" fill="none" xmlns="http://www.w3.org/2000/svg">
<g clip-path="url(#clip0_15_7349)">
<path d="M0.00502014 12.5C0.00502014 5.87258 5.3776 0.5 12.005 0.5H198.005C204.632 0.5 210.005 5.87258 210.005 12.5V134.5C210.005 141.127 204.632 146.5 198.005 146.5H12.005C5.3776 146.5 0.00502014 141.127 0.00502014 134.5V12.5Z" fill="url(#paint0_linear_15_7349)"/>
<g clip-path="url(#clip1_15_7349)">
<path opacity="0.2" d="M187.005 60C191.423 60 195.005 56.4183 195.005 52C195.005 47.5817 191.423 44 187.005 44C182.587 44 179.005 47.5817 179.005 52C179.005 56.4183 182.587 60 187.005 60Z" fill="black"/>
<path d="M49.5908 48.4144L13.5908 84.4144C13.2157 84.7895 13.005 85.2982 13.005 85.8286V129C13.005 130.105 13.9005 131 15.005 131H195.005C196.11 131 197.005 130.105 197.005 129V94.3286C197.005 92.5468 194.851 91.6545 193.591 92.9144L192.591 93.9144C192.216 94.2895 192.005 94.7982 192.005 95.3286V102.672C192.005 103.202 191.794 103.711 191.419 104.086L190.591 104.914C190.216 105.289 189.707 105.5 189.177 105.5H178.333C177.803 105.5 177.294 105.711 176.919 106.086L168.919 114.086C168.138 114.867 166.872 114.867 166.091 114.086L146.919 94.9144C146.138 94.1334 144.872 94.1334 144.091 94.9144L140.919 98.086C140.138 98.867 138.872 98.867 138.091 98.086L132.005 92.0002L103.419 63.4144C102.638 62.6334 101.372 62.6334 100.591 63.4144L85.4192 78.586C84.6382 79.367 83.3718 79.367 82.5908 78.586L52.4192 48.4144C51.6382 47.6334 50.3718 47.6333 49.5908 48.4144Z" fill="url(#paint1_linear_15_7349)"/>
</g>
<path d="M148.493 17.7179C147.894 17.7179 147.372 17.5697 146.927 17.2735C146.483 16.9705 146.136 16.5463 145.887 16.0009C145.645 15.4555 145.524 14.8124 145.524 14.0718C145.524 13.3244 145.645 12.678 145.887 12.1326C146.136 11.5872 146.483 11.1663 146.927 10.8701C147.372 10.5738 147.894 10.4257 148.493 10.4257C149.092 10.4257 149.614 10.5738 150.058 10.8701C150.503 11.1663 150.846 11.5872 151.089 12.1326C151.338 12.678 151.462 13.3244 151.462 14.0718C151.462 14.8192 151.338 15.4656 151.089 16.011C150.846 16.5564 150.503 16.9772 150.058 17.2735C149.614 17.5697 149.092 17.7179 148.493 17.7179ZM148.493 16.8089C148.863 16.8089 149.186 16.6978 149.463 16.4756C149.739 16.2534 149.954 15.9369 150.109 15.5262C150.264 15.1154 150.341 14.6306 150.341 14.0718C150.341 13.5062 150.264 13.0214 150.109 12.6174C149.954 12.2066 149.739 11.8902 149.463 11.668C149.186 11.4458 148.863 11.3347 148.493 11.3347C148.123 11.3347 147.799 11.4458 147.523 11.668C147.247 11.8902 147.032 12.2066 146.877 12.6174C146.722 13.0281 146.645 13.5129 146.645 14.0718C146.645 14.6306 146.722 15.1154 146.877 15.5262C147.032 15.9369 147.247 16.2534 147.523 16.4756C147.799 16.6978 148.123 16.8089 148.493 16.8089ZM152.628 17.5967V10.5469H155.405C155.87 10.5469 156.284 10.6277 156.648 10.7893C157.011 10.9441 157.297 11.1731 157.506 11.4761C157.715 11.7723 157.819 12.1292 157.819 12.5467C157.819 12.8429 157.745 13.1291 157.597 13.4052C157.449 13.6745 157.233 13.9135 156.951 14.1223C156.675 14.3243 156.338 14.469 155.941 14.5566C156.54 14.9808 156.981 15.4555 157.264 15.9807C157.546 16.5059 157.715 17.0445 157.769 17.5967H156.678C156.604 17.0445 156.395 16.5126 156.052 16.0009C155.708 15.4824 155.207 15.0313 154.547 14.6475H153.698V17.5967H152.628ZM155.405 11.4559H153.698V13.7385H155.183C155.621 13.7385 155.981 13.6307 156.264 13.4153C156.553 13.1998 156.698 12.9103 156.698 12.5467C156.698 12.21 156.57 11.944 156.314 11.7488C156.065 11.5535 155.762 11.4559 155.405 11.4559ZM159.318 16.6877H161.085V11.4559H159.318V10.5469H163.913V11.4559H162.156V16.6877H163.913V17.5967H159.318V16.6877ZM168.331 17.7179C167.705 17.7179 167.159 17.5664 166.695 17.2634C166.23 16.9604 165.867 16.5362 165.604 15.9908C165.348 15.4454 165.22 14.8057 165.22 14.0718C165.22 13.3513 165.348 12.7184 165.604 12.173C165.867 11.6208 166.234 11.1933 166.705 10.8903C167.176 10.5805 167.728 10.4257 168.361 10.4257C168.839 10.4257 169.27 10.5233 169.654 10.7186C170.045 10.9071 170.361 11.1798 170.604 11.5367C170.853 11.8935 170.997 12.3211 171.038 12.8194H169.856C169.802 12.3682 169.641 12.008 169.371 11.7387C169.109 11.4693 168.765 11.3347 168.341 11.3347C167.964 11.3347 167.624 11.4458 167.321 11.668C167.018 11.8834 166.779 12.1965 166.604 12.6073C166.436 13.0113 166.351 13.4994 166.351 14.0718C166.351 14.6576 166.439 15.1558 166.614 15.5666C166.796 15.9706 167.042 16.2803 167.351 16.4958C167.661 16.7045 168.015 16.8089 168.412 16.8089C168.749 16.8089 169.048 16.7483 169.311 16.6271C169.58 16.4991 169.802 16.3375 169.977 16.1423V14.7485L168.745 14.7889L168.786 13.8698H171.038V16.4554C170.755 16.8526 170.381 17.1624 169.917 17.3846C169.452 17.6068 168.924 17.7179 168.331 17.7179ZM172.456 16.6877H174.223V11.4559H172.456V10.5469H177.051V11.4559H175.294V16.6877H177.051V17.5967H172.456V16.6877ZM178.722 17.5967V10.5469H180.055L182.994 16.2029L182.913 14.0213V10.5469H183.943V17.5967H182.62L179.661 12.0013L179.752 14.1122V17.5967H178.722ZM187.129 10.5469H188.664L190.846 17.5967H189.745L189.199 15.8191H186.573L186.028 17.5967H184.947L187.129 10.5469ZM187.472 12.9406L186.856 14.9101H188.927L188.321 12.9305L187.897 11.3852L187.472 12.9406ZM192.294 17.5967V10.5469H193.365V16.6877H197.061V17.5967H192.294Z" fill="#111111"/>
</g>
<defs>
<linearGradient id="paint0_linear_15_7349" x1="210.005" y1="0.500005" x2="0.0139205" y2="146.513" gradientUnits="userSpaceOnUse">
<stop stop-color="#EBEBEB" stop-opacity="0.75"/>
<stop offset="1" stop-color="white" stop-opacity="0.75"/>
</linearGradient>
<linearGradient id="paint1_linear_15_7349" x1="105.005" y1="51.0002" x2="105.005" y2="131" gradientUnits="userSpaceOnUse">
<stop stop-opacity="0.1"/>
<stop offset="1" stop-opacity="0.2"/>
</linearGradient>
<clipPath id="clip0_15_7349">
<path d="M0.00502014 12.5C0.00502014 5.87258 5.3776 0.5 12.005 0.5H198.005C204.632 0.5 210.005 5.87258 210.005 12.5V134.5C210.005 141.127 204.632 146.5 198.005 146.5H12.005C5.3776 146.5 0.00502014 141.127 0.00502014 134.5V12.5Z" fill="white"/>
</clipPath>
<clipPath id="clip1_15_7349">
<rect width="184" height="88" fill="white" transform="translate(13.005 43.5)"/>
</clipPath>
</defs>
</svg>
